PathFileType	4	(X/Y/Z)	SUBJ51_0_static_RCNL2025.trc
DataRate	CameraRate	NumFrames	NumMarkers	Units	OrigDataRate	OrigDataStartFrame	OrigNumFrames
100	100	6	25	mm	100	63	93
Frame#	Time	R_Shoulder			L_Shoulder			C7			J_Notch			R_Elbow			L_Elbow			R_Wrist			L_Wrist			R_Asis			L_Asis			Sacral			Thoracic			Sternum			R_Thigh_Lateral			R_Knee_Lateral			R_Shank_Lateral			R_Ankle_Lateral			R_Heel			R_Toe			L_Thigh_Lateral			L_Knee_Lateral			L_Shank_Lateral			L_Ankle_Lateral			L_Heel			L_Toe		
		X1	Y1	Z1	X2	Y2	Z2	X3	Y3	Z3	X4	Y4	Z4	X5	Y5	Z5	X6	Y6	Z6	X7	Y7	Z7	X8	Y8	Z8	X9	Y9	Z9	X10	Y10	Z10	X11	Y11	Z11	X12	Y12	Z12	X13	Y13	Z13	X14	Y14	Z14	X15	Y15	Z15	X16	Y16	Z16	X17	Y17	Z17	X18	Y18	Z18	X19	Y19	Z19	X20	Y20	Z20	X21	Y21	Z21	X22	Y22	Z22	X23	Y23	Z23	X24	Y24	Z24	X25	Y25	Z25
63	0.62000000	-203.570602	1505.945923	-34.896709	-217.179245	1516.248779	-482.356262	-298.790649	1611.020386	-268.388580	-146.492462	1507.599243	-266.448975	-248.431580	1233.602905	109.117920	-244.955399	1235.410522	-633.706421	-179.415405	973.206879	114.751396	-200.480049	980.331940	-663.179108	-136.038284	1052.934570	-129.858612	-138.341995	1034.847290	-370.046509	-354.097473	1084.104614	-255.004913	-383.407074	1392.374023	-262.011292	-87.885574	1277.923340	-269.740112	-208.738464	653.020325	-41.757191	-241.582031	529.578552	-88.997055	-293.941132	320.582947	-18.363001	-332.158997	81.600243	-128.742752	-383.227722	74.086189	-184.804977	-174.915222	48.252926	-150.721939	-238.087372	646.912415	-469.196991	-264.935455	529.149719	-420.814362	-311.903717	343.505463	-460.580383	-331.617188	74.106339	-354.099274	-379.283020	81.164261	-294.891632	-173.489975	45.585110	-342.778809
64	0.63000000	-203.386703	1505.967529	-34.915043	-217.101532	1516.113159	-482.319763	-298.654816	1610.997070	-268.384583	-146.482910	1507.624146	-266.434998	-248.268112	1233.583496	109.113426	-244.937988	1235.196899	-633.592224	-179.287384	973.162109	114.769661	-200.414543	980.181000	-662.989563	-135.866562	1052.831665	-129.735229	-138.222610	1034.814209	-370.021973	-353.970398	1084.191040	-254.972397	-383.268799	1392.369019	-261.978241	-87.896347	1277.845337	-269.742615	-208.616409	652.963379	-41.742298	-241.525497	529.442871	-88.993797	-294.009918	320.541382	-18.293753	-332.210876	81.596481	-128.702576	-383.234192	74.094727	-184.818527	-174.964096	48.184006	-150.705048	-238.126175	646.811890	-469.138855	-264.926025	529.127808	-420.769531	-311.901428	343.404785	-460.599518	-331.625732	74.116272	-354.093292	-379.212463	81.144051	-294.832825	-173.487473	45.570934	-342.776367
65	0.64000000	-203.310272	1505.943970	-34.975212	-217.017776	1516.005127	-482.395935	-298.557983	1610.988037	-268.452454	-146.218826	1507.593140	-266.656738	-248.245514	1233.589478	109.137459	-244.880386	1235.086304	-633.562134	-179.139915	973.193420	114.750015	-200.423180	980.022583	-662.830292	-135.896942	1052.899658	-129.871475	-138.201370	1034.821655	-370.008667	-353.899231	1084.197021	-254.911560	-383.163239	1392.421875	-262.060730	-87.753708	1277.771118	-269.740356	-208.659195	652.869629	-41.648869	-241.499359	529.461243	-89.006966	-294.015076	320.536743	-18.332232	-332.203735	81.560478	-128.712189	-383.211792	74.016586	-184.833954	-174.976517	48.174644	-150.688385	-238.129730	646.818115	-469.137207	-264.914703	529.172668	-420.751282	-311.952332	343.432709	-460.538513	-331.618439	74.115936	-354.110168	-379.191956	81.061409	-294.827545	-173.486725	45.572498	-342.776306
66	0.65000000	-203.089401	1505.993164	-35.021679	-216.940109	1515.946289	-482.402893	-298.507629	1611.095215	-268.395508	-146.156738	1507.636475	-266.647095	-248.079117	1233.649292	109.097908	-244.788483	1234.989624	-633.474426	-179.091850	973.242554	114.752136	-200.377945	979.928345	-662.709045	-135.795929	1052.897095	-129.843872	-138.127747	1034.780640	-369.921967	-353.766663	1084.239380	-254.870926	-383.021820	1392.396729	-262.054840	-87.615524	1277.774170	-269.706329	-208.688293	652.878174	-41.619133	-241.507660	529.445312	-88.999397	-294.135925	320.564667	-18.257402	-332.293152	81.072693	-128.842972	-383.201813	74.021812	-184.839478	-174.966400	48.171764	-150.716827	-238.117844	646.873291	-469.137115	-264.790924	529.190857	-420.771027	-311.954834	343.393860	-460.548767	-331.606995	74.122917	-354.128723	-379.230011	81.091461	-294.794952	-173.485718	45.591488	-342.780945
67	0.66000000	-202.959946	1506.057739	-35.120228	-216.783630	1515.877075	-482.331238	-298.366333	1611.013916	-268.508118	-146.088654	1507.605225	-266.789185	-247.966385	1233.726074	109.109459	-244.810822	1234.843628	-633.345764	-178.956940	973.299835	114.801472	-200.343399	979.796143	-662.560089	-135.670639	1052.895142	-129.798737	-138.026978	1034.706543	-369.915039	-353.721863	1084.295166	-254.761414	-382.873749	1392.387329	-262.026642	-87.555450	1277.713501	-269.742126	-208.697784	652.898621	-41.591206	-241.534241	529.513367	-88.966331	-294.107483	320.571320	-18.195271	-332.140228	81.618233	-128.749893	-383.204071	74.026466	-184.838577	-174.962494	48.143559	-150.696640	-238.104935	646.930847	-469.157959	-264.860382	529.174683	-420.771545	-311.907623	343.481415	-460.595306	-331.610535	74.125481	-354.121460	-379.183228	81.156563	-294.842163	-173.427689	45.574936	-342.742584
68	0.67000000	-202.715454	1506.080078	-35.182117	-216.760361	1515.819824	-482.383575	-298.230042	1611.046021	-268.475952	-145.973114	1507.618042	-266.752319	-247.773010	1233.746948	109.094368	-244.814651	1234.730225	-633.329956	-178.868065	973.332764	114.776756	-200.309471	979.668823	-662.416504	-135.523361	1052.900879	-129.739899	-137.928116	1034.764771	-369.948273	-353.579498	1084.344482	-254.749039	-382.802368	1392.442139	-261.977112	-87.437889	1277.715210	-269.727173	-208.645691	652.956482	-41.624382	-241.422012	529.529297	-88.869156	-294.027496	320.616302	-18.271349	-332.239197	81.181267	-128.852737	-383.224396	74.084351	-184.810211	-174.908569	48.228558	-150.734772	-238.076569	646.931335	-469.062714	-264.894531	529.210999	-420.625916	-311.882385	343.520599	-460.527924	-331.611694	74.119431	-354.103333	-379.130219	81.111069	-294.879791	-173.437897	45.586922	-342.735199
